<svg width="17" height="17" viewBox="0 0 17 17" fill="none" xmlns="http://www.w3.org/2000/svg">
<path d="M0 1H13C14.6569 1 16 2.34315 16 4V17H3C1.34315 17 0 15.6569 0 14V1Z" fill="#FFB82C"/>
<path d="M6.28813 9.15C6.58146 9.37667 6.79813 9.66 6.93813 10C7.08479 10.3333 7.13146 10.68 7.07813 11.04C7.01813 11.4467 6.85813 11.79 6.59813 12.07C6.33813 12.3433 6.03146 12.56 5.67813 12.72C5.32479 12.88 4.94146 12.9867 4.52813 13.04C4.12146 13.0933 3.73813 13.1 3.37813 13.06C3.34479 13.0733 3.31479 13.08 3.28813 13.08C3.26146 13.0867 3.23146 13.0933 3.19813 13.1C3.07813 13.1067 2.95479 13.1067 2.82813 13.1C2.70146 13.0933 2.58479 13.07 2.47813 13.03C2.37813 12.9967 2.29146 12.94 2.21813 12.86C2.14479 12.7733 2.10146 12.6533 2.08813 12.5C2.07479 12.4267 2.07146 12.28 2.07813 12.06C2.08479 11.8333 2.09146 11.56 2.09813 11.24C2.11146 10.9133 2.12146 10.56 2.12813 10.18C2.14146 9.79333 2.15146 9.40667 2.15812 9.02C2.16479 8.51333 2.17146 8.00333 2.17813 7.49C2.18479 6.97667 2.16479 6.46 2.11813 5.94C2.10479 5.88 2.11146 5.82667 2.13813 5.78C2.15146 5.74 2.18146 5.70333 2.22813 5.67C2.27479 5.63 2.34479 5.60333 2.43813 5.59C2.50479 5.58333 2.57813 5.57333 2.65813 5.56C2.73813 5.54667 2.82146 5.53667 2.90813 5.53C2.99479 5.52333 3.07813 5.52333 3.15813 5.53C3.23813 5.53667 3.30813 5.55 3.36813 5.57C3.70813 5.52333 4.06479 5.52333 4.43813 5.57C4.81146 5.61 5.16146 5.69667 5.48813 5.83C5.82146 5.96333 6.10813 6.14333 6.34813 6.37C6.59479 6.59 6.75813 6.86 6.83813 7.18C6.87146 7.32 6.89146 7.46667 6.89813 7.62C6.90479 7.77333 6.88813 7.93333 6.84813 8.1C6.80813 8.26 6.74146 8.43 6.64813 8.61C6.56146 8.78333 6.44146 8.96333 6.28813 9.15ZM3.69813 8.56C4.01813 8.57333 4.28813 8.54 4.50813 8.46C4.72813 8.38 4.89146 8.27667 4.99813 8.15C5.11146 8.01667 5.16479 7.87333 5.15813 7.72C5.15813 7.56667 5.10146 7.43 4.98813 7.31C4.87479 7.19 4.70479 7.1 4.47813 7.04C4.25146 6.97333 3.96479 6.96333 3.61813 7.01C3.63813 7.27 3.65146 7.52667 3.65813 7.78C3.67146 8.03333 3.68479 8.29333 3.69813 8.56ZM3.72813 11.46C4.08813 11.5 4.39146 11.4833 4.63813 11.41C4.88479 11.3367 5.06813 11.2367 5.18813 11.11C5.31479 10.9833 5.37813 10.8467 5.37813 10.7C5.38479 10.5533 5.32813 10.4267 5.20813 10.32C5.08813 10.2133 4.90479 10.1433 4.65813 10.11C4.41146 10.07 4.10146 10.0933 3.72813 10.18V11.46ZM11.7543 11.86C11.761 11.9733 11.7643 12.0933 11.7643 12.22C11.7643 12.3467 11.7576 12.4667 11.7443 12.58C11.731 12.6867 11.7076 12.78 11.6743 12.86C11.641 12.9333 11.591 12.98 11.5243 13C11.491 13.0133 11.4243 13.02 11.3243 13.02C11.231 13.02 11.1176 13.0167 10.9843 13.01C10.6243 12.9967 10.251 12.9967 9.8643 13.01C9.47763 13.03 9.08096 13.04 8.6743 13.04C8.5743 13.04 8.47096 13.0367 8.3643 13.03C8.2643 13.03 8.17096 13.0133 8.0843 12.98C7.99763 12.94 7.92096 12.8833 7.8543 12.81C7.78763 12.7367 7.74096 12.6333 7.7143 12.5C7.70763 12.4667 7.70096 12.35 7.6943 12.15C7.6943 11.9433 7.6943 11.69 7.6943 11.39C7.6943 11.0833 7.6943 10.74 7.6943 10.36C7.6943 9.98 7.6943 9.59333 7.6943 9.2C7.70096 8.8 7.7043 8.41 7.7043 8.03C7.71096 7.64333 7.7143 7.29667 7.7143 6.99C7.7143 6.68333 7.7143 6.42667 7.7143 6.22C7.72096 6.01333 7.7243 5.89 7.7243 5.85C7.71763 5.79 7.7243 5.73667 7.7443 5.69C7.75763 5.65 7.78763 5.61333 7.8343 5.58C7.88096 5.54667 7.95096 5.52667 8.0443 5.52C8.13763 5.51333 8.2543 5.51 8.3943 5.51C8.54096 5.50333 8.68096 5.50667 8.8143 5.52C8.94763 5.52667 9.0643 5.55 9.1643 5.59C9.2643 5.63 9.31763 5.69 9.3243 5.77C9.33763 6.73 9.3443 7.68667 9.3443 8.64C9.35096 9.58667 9.35096 10.5367 9.3443 11.49C9.6843 11.4567 10.0276 11.43 10.3743 11.41C10.7276 11.39 11.1143 11.3767 11.5343 11.37C11.581 11.37 11.6176 11.39 11.6443 11.43C11.6776 11.4633 11.701 11.5067 11.7143 11.56C11.7276 11.6133 11.7376 11.6667 11.7443 11.72C11.751 11.7733 11.7543 11.82 11.7543 11.86ZM13.8132 12.42C13.8132 12.5933 13.7399 12.7433 13.5932 12.87C13.4532 12.99 13.2832 13.05 13.0832 13.05C12.8832 13.05 12.7099 12.99 12.5632 12.87C12.4232 12.7433 12.3532 12.5933 12.3532 12.42C12.3532 12.24 12.4232 12.0867 12.5632 11.96C12.7099 11.8333 12.8832 11.77 13.0832 11.77C13.2832 11.77 13.4532 11.8333 13.5932 11.96C13.7399 12.0867 13.8132 12.24 13.8132 12.42Z" fill="#1A0104"/>
<path d="M7.28813 8.15C7.58146 8.37667 7.79813 8.66 7.93813 9C8.08479 9.33333 8.13146 9.68 8.07813 10.04C8.01813 10.4467 7.85813 10.79 7.59813 11.07C7.33813 11.3433 7.03146 11.56 6.67813 11.72C6.32479 11.88 5.94146 11.9867 5.52813 12.04C5.12146 12.0933 4.73813 12.1 4.37813 12.06C4.34479 12.0733 4.31479 12.08 4.28813 12.08C4.26146 12.0867 4.23146 12.0933 4.19813 12.1C4.07813 12.1067 3.95479 12.1067 3.82813 12.1C3.70146 12.0933 3.58479 12.07 3.47813 12.03C3.37813 11.9967 3.29146 11.94 3.21813 11.86C3.14479 11.7733 3.10146 11.6533 3.08813 11.5C3.07479 11.4267 3.07146 11.28 3.07813 11.06C3.08479 10.8333 3.09146 10.56 3.09813 10.24C3.11146 9.91333 3.12146 9.56 3.12813 9.18C3.14146 8.79333 3.15146 8.40667 3.15812 8.02C3.16479 7.51333 3.17146 7.00333 3.17813 6.49C3.18479 5.97667 3.16479 5.46 3.11813 4.94C3.10479 4.88 3.11146 4.82667 3.13813 4.78C3.15146 4.74 3.18146 4.70333 3.22813 4.67C3.27479 4.63 3.34479 4.60333 3.43813 4.59C3.50479 4.58333 3.57813 4.57333 3.65813 4.56C3.73813 4.54667 3.82146 4.53667 3.90813 4.53C3.99479 4.52333 4.07813 4.52333 4.15813 4.53C4.23813 4.53667 4.30813 4.55 4.36813 4.57C4.70813 4.52333 5.06479 4.52333 5.43813 4.57C5.81146 4.61 6.16146 4.69667 6.48813 4.83C6.82146 4.96333 7.10813 5.14333 7.34813 5.37C7.59479 5.59 7.75813 5.86 7.83813 6.18C7.87146 6.32 7.89146 6.46667 7.89813 6.62C7.90479 6.77333 7.88813 6.93333 7.84813 7.1C7.80813 7.26 7.74146 7.43 7.64813 7.61C7.56146 7.78333 7.44146 7.96333 7.28813 8.15ZM4.69813 7.56C5.01813 7.57333 5.28813 7.54 5.50813 7.46C5.72813 7.38 5.89146 7.27667 5.99813 7.15C6.11146 7.01667 6.16479 6.87333 6.15813 6.72C6.15813 6.56667 6.10146 6.43 5.98813 6.31C5.87479 6.19 5.70479 6.1 5.47813 6.04C5.25146 5.97333 4.96479 5.96333 4.61813 6.01C4.63813 6.27 4.65146 6.52667 4.65813 6.78C4.67146 7.03333 4.68479 7.29333 4.69813 7.56ZM4.72813 10.46C5.08813 10.5 5.39146 10.4833 5.63813 10.41C5.88479 10.3367 6.06813 10.2367 6.18813 10.11C6.31479 9.98333 6.37813 9.84667 6.37813 9.7C6.38479 9.55333 6.32813 9.42667 6.20813 9.32C6.08813 9.21333 5.90479 9.14333 5.65813 9.11C5.41146 9.07 5.10146 9.09333 4.72813 9.18V10.46ZM12.7543 10.86C12.761 10.9733 12.7643 11.0933 12.7643 11.22C12.7643 11.3467 12.7576 11.4667 12.7443 11.58C12.731 11.6867 12.7076 11.78 12.6743 11.86C12.641 11.9333 12.591 11.98 12.5243 12C12.491 12.0133 12.4243 12.02 12.3243 12.02C12.231 12.02 12.1176 12.0167 11.9843 12.01C11.6243 11.9967 11.251 11.9967 10.8643 12.01C10.4776 12.03 10.081 12.04 9.6743 12.04C9.5743 12.04 9.47096 12.0367 9.3643 12.03C9.2643 12.03 9.17096 12.0133 9.0843 11.98C8.99763 11.94 8.92096 11.8833 8.8543 11.81C8.78763 11.7367 8.74096 11.6333 8.7143 11.5C8.70763 11.4667 8.70096 11.35 8.6943 11.15C8.6943 10.9433 8.6943 10.69 8.6943 10.39C8.6943 10.0833 8.6943 9.74 8.6943 9.36C8.6943 8.98 8.6943 8.59333 8.6943 8.2C8.70096 7.8 8.7043 7.41 8.7043 7.03C8.71096 6.64333 8.7143 6.29667 8.7143 5.99C8.7143 5.68333 8.7143 5.42667 8.7143 5.22C8.72096 5.01333 8.7243 4.89 8.7243 4.85C8.71763 4.79 8.7243 4.73667 8.7443 4.69C8.75763 4.65 8.78763 4.61333 8.8343 4.58C8.88096 4.54667 8.95096 4.52667 9.0443 4.52C9.13763 4.51333 9.2543 4.51 9.3943 4.51C9.54096 4.50333 9.68096 4.50667 9.8143 4.52C9.94763 4.52667 10.0643 4.55 10.1643 4.59C10.2643 4.63 10.3176 4.69 10.3243 4.77C10.3376 5.73 10.3443 6.68667 10.3443 7.64C10.351 8.58667 10.351 9.53667 10.3443 10.49C10.6843 10.4567 11.0276 10.43 11.3743 10.41C11.7276 10.39 12.1143 10.3767 12.5343 10.37C12.581 10.37 12.6176 10.39 12.6443 10.43C12.6776 10.4633 12.701 10.5067 12.7143 10.56C12.7276 10.6133 12.7376 10.6667 12.7443 10.72C12.751 10.7733 12.7543 10.82 12.7543 10.86ZM14.8132 11.42C14.8132 11.5933 14.7399 11.7433 14.5932 11.87C14.4532 11.99 14.2832 12.05 14.0832 12.05C13.8832 12.05 13.7099 11.99 13.5632 11.87C13.4232 11.7433 13.3532 11.5933 13.3532 11.42C13.3532 11.24 13.4232 11.0867 13.5632 10.96C13.7099 10.8333 13.8832 10.77 14.0832 10.77C14.2832 10.77 14.4532 10.8333 14.5932 10.96C14.7399 11.0867 14.8132 11.24 14.8132 11.42Z" fill="#FEFCE0"/>
</svg>
